STARTFONT 2.1
FONT -wooosh-deserted-medium-r-normal--16-160-75-75-m-80-iso10646-1
SIZE 75 75
FONTBOUNDINGBOX 8 16 0 -3
STARTPROPERTIES 18
FONT_ASCENT 13
FONT_DESCENT 3
FONTNAME_REGISTRY ""
FOUNDRY "wooosh"
FAMILY_NAME "deserted"
WEIGHT_NAME "medium"
SLANT "r"
SETWIDTH_NAME "normal"
ADD_STYLE_NAME ""
PIXEL_SIZE 16
POINT_SIZE 160
RESOLUTION_X 75
RESOLUTION_Y 75
SPACING "m"
AVERAGE_WIDTH 80
CHARSET_REGISTRY "ISO10646"
CHARSET_ENCODING "1"
DEFAULT_CHAR 0
ENDPROPERTIES
CHARS 122
STARTCHAR U+0020
ENCODING 32
SWIDTH 600 0
DWIDTH 8 0
BBX 8 16 0 -2
BITMAP
00
00
00
00
00
00
00
00
00
00
00
00
00
00
00
00
ENDCHAR
STARTCHAR U+0021
ENCODING 33
SWIDTH 600 0
DWIDTH 8 0
BBX 8 16 0 -2
BITMAP
00
00
00
10
10
10
10
10
10
10
10
00
10
00
00
00
ENDCHAR
STARTCHAR U+0022
ENCODING 34
SWIDTH 600 0
DWIDTH 8 0
BBX 8 16 0 -2
BITMAP
00
00
00
28
28
28
00
00
00
00
00
00
00
00
00
00
ENDCHAR
STARTCHAR U+0023
ENCODING 35
SWIDTH 600 0
DWIDTH 8 0
BBX 8 16 0 -2
BITMAP
00
00
00
44
44
FE
44
44
44
FE
44
44
00
00
00
00
ENDCHAR
STARTCHAR U+0024
ENCODING 36
SWIDTH 600 0
DWIDTH 8 0
BBX 8 16 0 -2
BITMAP
00
00
10
10
7C
92
90
7C
12
12
92
7C
10
00
00
00
ENDCHAR
STARTCHAR U+0025
ENCODING 37
SWIDTH 600 0
DWIDTH 8 0
BBX 8 16 0 -2
BITMAP
00
00
00
00
42
A4
48
10
24
4A
84
00
00
00
00
00
ENDCHAR
STARTCHAR U+0026
ENCODING 38
SWIDTH 600 0
DWIDTH 8 0
BBX 8 16 0 -2
BITMAP
00
00
00
00
70
88
88
50
20
54
88
8C
72
00
00
00
ENDCHAR
STARTCHAR U+0027
ENCODING 39
SWIDTH 600 0
DWIDTH 8 0
BBX 8 16 0 -2
BITMAP
00
00
00
10
10
10
00
00
00
00
00
00
00
00
00
00
ENDCHAR
STARTCHAR U+0028
ENCODING 40
SWIDTH 600 0
DWIDTH 8 0
BBX 8 16 0 -2
BITMAP
00
00
0C
10
20
20
20
20
20
20
20
20
10
0C
00
00
ENDCHAR
STARTCHAR U+0029
ENCODING 41
SWIDTH 600 0
DWIDTH 8 0
BBX 8 16 0 -2
BITMAP
00
00
60
10
08
08
08
08
08
08
08
08
10
60
00
00
ENDCHAR
STARTCHAR U+002A
ENCODING 42
SWIDTH 600 0
DWIDTH 8 0
BBX 8 16 0 -2
BITMAP
00
00
00
00
00
10
54
38
38
54
10
00
00
00
00
00
ENDCHAR
STARTCHAR U+002B
ENCODING 43
SWIDTH 600 0
DWIDTH 8 0
BBX 8 16 0 -2
BITMAP
00
00
00
00
00
10
10
7C
10
10
00
00
00
00
00
00
ENDCHAR
STARTCHAR U+002C
ENCODING 44
SWIDTH 600 0
DWIDTH 8 0
BBX 8 16 0 -2
BITMAP
00
00
00
00
00
00
00
00
00
00
30
30
10
20
00
00
ENDCHAR
STARTCHAR U+002D
ENCODING 45
SWIDTH 600 0
DWIDTH 8 0
BBX 8 16 0 -2
BITMAP
00
00
00
00
00
00
00
7C
00
00
00
00
00
00
00
00
ENDCHAR
STARTCHAR U+002E
ENCODING 46
SWIDTH 600 0
DWIDTH 8 0
BBX 8 16 0 -2
BITMAP
00
00
00
00
00
00
00
00
00
00
00
30
30
00
00
00
ENDCHAR
STARTCHAR U+002F
ENCODING 47
SWIDTH 600 0
DWIDTH 8 0
BBX 8 16 0 -2
BITMAP
00
00
00
04
04
08
08
10
10
20
20
40
40
00
00
00
ENDCHAR
STARTCHAR U+003A
ENCODING 58
SWIDTH 600 0
DWIDTH 8 0
BBX 8 16 0 -2
BITMAP
00
00
00
00
30
30
00
00
00
00
00
30
30
00
00
00
ENDCHAR
STARTCHAR U+003B
ENCODING 59
SWIDTH 600 0
DWIDTH 8 0
BBX 8 16 0 -2
BITMAP
00
00
00
00
30
30
00
00
00
00
30
30
10
20
00
00
ENDCHAR
STARTCHAR U+003C
ENCODING 60
SWIDTH 600 0
DWIDTH 8 0
BBX 8 16 0 -2
BITMAP
00
00
00
00
00
04
08
10
20
10
08
04
00
00
00
00
ENDCHAR
STARTCHAR U+003D
ENCODING 61
SWIDTH 600 0
DWIDTH 8 0
BBX 8 16 0 -2
BITMAP
00
00
00
00
00
00
7C
00
00
7C
00
00
00
00
00
00
ENDCHAR
STARTCHAR U+003E
ENCODING 62
SWIDTH 600 0
DWIDTH 8 0
BBX 8 16 0 -2
BITMAP
00
00
00
00
00
20
10
08
04
08
10
20
00
00
00
00
ENDCHAR
STARTCHAR U+003F
ENCODING 63
SWIDTH 600 0
DWIDTH 8 0
BBX 8 16 0 -2
BITMAP
00
00
00
38
44
04
04
08
10
10
00
10
10
00
00
00
ENDCHAR
STARTCHAR U+0040
ENCODING 64
SWIDTH 600 0
DWIDTH 8 0
BBX 8 16 0 -2
BITMAP
00
00
7C
82
82
9A
A6
A4
A4
98
82
82
7C
00
00
00
ENDCHAR
STARTCHAR U+005B
ENCODING 91
SWIDTH 600 0
DWIDTH 8 0
BBX 8 16 0 -2
BITMAP
00
00
3C
20
20
20
20
20
20
20
20
20
3C
00
00
00
ENDCHAR
STARTCHAR U+005C
ENCODING 92
SWIDTH 600 0
DWIDTH 8 0
BBX 8 16 0 -2
BITMAP
00
00
00
40
40
20
20
10
10
08
08
04
04
00
00
00
ENDCHAR
STARTCHAR U+005D
ENCODING 93
SWIDTH 600 0
DWIDTH 8 0
BBX 8 16 0 -2
BITMAP
00
00
78
08
08
08
08
08
08
08
08
08
78
00
00
00
ENDCHAR
STARTCHAR U+005E
ENCODING 94
SWIDTH 600 0
DWIDTH 8 0
BBX 8 16 0 -2
BITMAP
00
00
00
00
10
28
44
00
00
00
00
00
00
00
00
00
ENDCHAR
STARTCHAR U+005F
ENCODING 95
SWIDTH 600 0
DWIDTH 8 0
BBX 8 16 0 -2
BITMAP
00
00
00
00
00
00
00
00
00
00
00
00
FE
00
00
00
ENDCHAR
STARTCHAR U+0060
ENCODING 96
SWIDTH 600 0
DWIDTH 8 0
BBX 8 16 0 -2
BITMAP
00
00
00
40
20
10
00
00
00
00
00
00
00
00
00
00
ENDCHAR
STARTCHAR U+007B
ENCODING 123
SWIDTH 600 0
DWIDTH 8 0
BBX 8 16 0 -2
BITMAP
00
00
1C
20
20
20
20
40
20
20
20
20
1C
00
00
00
ENDCHAR
STARTCHAR U+007C
ENCODING 124
SWIDTH 600 0
DWIDTH 8 0
BBX 8 16 0 -2
BITMAP
00
00
10
10
10
10
10
10
10
10
10
10
10
00
00
00
ENDCHAR
STARTCHAR U+007D
ENCODING 125
SWIDTH 600 0
DWIDTH 8 0
BBX 8 16 0 -2
BITMAP
00
00
70
08
08
08
08
04
08
08
08
08
70
00
00
00
ENDCHAR
STARTCHAR U+007E
ENCODING 126
SWIDTH 600 0
DWIDTH 8 0
BBX 8 16 0 -2
BITMAP
00
00
00
00
00
00
20
54
08
00
00
00
00
00
00
00
ENDCHAR
STARTCHAR U+002261
ENCODING 8801
SWIDTH 600 0
DWIDTH 8 0
BBX 8 16 0 -2
BITMAP
00
00
00
00
00
7E
00
7E
00
7E
00
00
00
00
00
00
ENDCHAR
STARTCHAR U+002192
ENCODING 8594
SWIDTH 600 0
DWIDTH 8 0
BBX 8 16 0 -2
BITMAP
00
00
00
00
04
04
02
FF
02
04
04
00
00
00
00
00
ENDCHAR
STARTCHAR U+0021D2
ENCODING 8658
SWIDTH 600 0
DWIDTH 8 0
BBX 8 16 0 -2
BITMAP
00
00
00
00
04
04
FE
03
FE
04
04
00
00
00
00
00
ENDCHAR
STARTCHAR U+0021D4
ENCODING 8660
SWIDTH 600 0
DWIDTH 8 0
BBX 8 16 0 -2
BITMAP
00
00
00
00
24
24
7E
C3
7E
24
24
00
00
00
00
00
ENDCHAR
STARTCHAR U+00AC
ENCODING 172
SWIDTH 600 0
DWIDTH 8 0
BBX 8 16 0 -2
BITMAP
00
00
00
00
00
00
7E
02
02
02
00
00
00
00
00
00
ENDCHAR
STARTCHAR U+002228
ENCODING 8744
SWIDTH 600 0
DWIDTH 8 0
BBX 8 16 0 -2
BITMAP
00
00
00
00
00
82
82
44
44
28
28
10
00
00
00
00
ENDCHAR
STARTCHAR U+002227
ENCODING 8743
SWIDTH 600 0
DWIDTH 8 0
BBX 8 16 0 -2
BITMAP
00
00
00
00
00
10
28
28
44
44
82
82
00
00
00
00
ENDCHAR
STARTCHAR U+0022A5
ENCODING 8869
SWIDTH 600 0
DWIDTH 8 0
BBX 8 16 0 -2
BITMAP
00
00
00
00
10
10
10
10
10
10
10
FE
00
00
00
00
ENDCHAR
STARTCHAR U+0022A4
ENCODING 8868
SWIDTH 600 0
DWIDTH 8 0
BBX 8 16 0 -2
BITMAP
00
00
00
00
FE
10
10
10
10
10
10
10
00
00
00
00
ENDCHAR
STARTCHAR U+002200
ENCODING 8704
SWIDTH 600 0
DWIDTH 8 0
BBX 8 16 0 -2
BITMAP
00
00
00
82
82
82
7C
44
44
28
28
10
10
00
00
00
ENDCHAR
STARTCHAR U+002203
ENCODING 8707
SWIDTH 600 0
DWIDTH 8 0
BBX 8 16 0 -2
BITMAP
00
00
00
7E
02
02
02
1E
02
02
02
02
7E
00
00
00
ENDCHAR
STARTCHAR U+0022A2
ENCODING 8866
SWIDTH 600 0
DWIDTH 8 0
BBX 8 16 0 -2
BITMAP
00
00
00
00
40
40
40
40
7E
40
40
40
40
00
00
00
ENDCHAR
STARTCHAR U+0022A8
ENCODING 8872
SWIDTH 600 0
DWIDTH 8 0
BBX 8 16 0 -2
BITMAP
00
00
00
00
40
40
7E
40
40
7E
40
40
00
00
00
00
ENDCHAR
STARTCHAR U+002282
ENCODING 8834
SWIDTH 600 0
DWIDTH 8 0
BBX 8 16 0 -2
BITMAP
00
00
00
00
00
00
3E
40
40
3E
00
00
00
00
00
00
ENDCHAR
STARTCHAR U+002286
ENCODING 8838
SWIDTH 600 0
DWIDTH 8 0
BBX 8 16 0 -2
BITMAP
00
00
00
00
00
00
3E
40
40
3E
00
08
00
00
00
00
ENDCHAR
STARTCHAR U+002283
ENCODING 8835
SWIDTH 600 0
DWIDTH 8 0
BBX 8 16 0 -2
BITMAP
00
00
00
00
00
00
7C
02
02
7C
00
00
00
00
00
00
ENDCHAR
STARTCHAR U+002194
ENCODING 8596
SWIDTH 600 0
DWIDTH 8 0
BBX 8 16 0 -2
BITMAP
00
00
00
00
24
24
42
FF
42
24
24
00
00
00
00
00
ENDCHAR
STARTCHAR U+0025A0
ENCODING 9632
SWIDTH 600 0
DWIDTH 8 0
BBX 8 16 0 -2
BITMAP
00
00
00
00
00
00
00
7E
7E
7E
7E
7E
7E
7E
00
00
ENDCHAR
STARTCHAR U+002191
ENCODING 8593
SWIDTH 600 0
DWIDTH 8 0
BBX 8 16 0 -2
BITMAP
00
00
00
00
10
38
54
54
10
10
10
10
10
00
00
00
ENDCHAR
STARTCHAR U+002193
ENCODING 8595
SWIDTH 600 0
DWIDTH 8 0
BBX 8 16 0 -2
BITMAP
00
00
00
00
10
10
10
10
10
54
54
38
10
00
00
00
ENDCHAR
STARTCHAR U+002234
ENCODING 8756
SWIDTH 600 0
DWIDTH 8 0
BBX 8 16 0 -2
BITMAP
00
00
00
00
00
00
00
18
18
00
00
66
66
00
00
00
ENDCHAR
STARTCHAR U+002235
ENCODING 8757
SWIDTH 600 0
DWIDTH 8 0
BBX 8 16 0 -2
BITMAP
00
00
00
00
00
00
00
66
66
00
00
18
18
00
00
00
ENDCHAR
STARTCHAR U+002020
ENCODING 8224
SWIDTH 600 0
DWIDTH 8 0
BBX 8 16 0 -2
BITMAP
00
00
10
10
7C
10
10
10
10
10
10
10
10
00
00
00
ENDCHAR
STARTCHAR U+0022BC
ENCODING 8892
SWIDTH 600 0
DWIDTH 8 0
BBX 8 16 0 -2
BITMAP
00
00
00
FE
00
10
28
28
44
44
82
82
00
00
00
00
ENDCHAR
STARTCHAR U+0022BD
ENCODING 8893
SWIDTH 600 0
DWIDTH 8 0
BBX 8 16 0 -2
BITMAP
00
00
00
FE
00
82
82
44
44
28
28
10
00
00
00
00
ENDCHAR
STARTCHAR U+0025C7
ENCODING 9671
SWIDTH 600 0
DWIDTH 8 0
BBX 8 16 0 -2
BITMAP
00
00
00
00
00
10
28
44
82
44
28
10
00
00
00
00
ENDCHAR
STARTCHAR U+0025FB
ENCODING 9723
SWIDTH 600 0
DWIDTH 8 0
BBX 8 16 0 -2
BITMAP
00
00
00
00
00
00
7C
44
44
44
7C
00
00
00
00
00
ENDCHAR
STARTCHAR U+0030
ENCODING 48
SWIDTH 600 0
DWIDTH 8 0
BBX 8 16 0 -2
BITMAP
00
00
38
44
82
82
82
92
82
82
82
44
38
00
00
00
ENDCHAR
STARTCHAR U+0031
ENCODING 49
SWIDTH 600 0
DWIDTH 8 0
BBX 8 16 0 -2
BITMAP
00
00
10
30
50
90
10
10
10
10
10
10
FE
00
00
00
ENDCHAR
STARTCHAR U+0032
ENCODING 50
SWIDTH 600 0
DWIDTH 8 0
BBX 8 16 0 -2
BITMAP
00
00
38
44
82
82
02
0C
30
40
80
80
FE
00
00
00
ENDCHAR
STARTCHAR U+0033
ENCODING 51
SWIDTH 600 0
DWIDTH 8 0
BBX 8 16 0 -2
BITMAP
00
00
38
44
82
02
04
18
04
02
82
44
38
00
00
00
ENDCHAR
STARTCHAR U+0034
ENCODING 52
SWIDTH 600 0
DWIDTH 8 0
BBX 8 16 0 -2
BITMAP
00
00
04
0C
14
14
24
24
44
44
FE
04
04
00
00
00
ENDCHAR
STARTCHAR U+0035
ENCODING 53
SWIDTH 600 0
DWIDTH 8 0
BBX 8 16 0 -2
BITMAP
00
00
FC
80
80
80
B8
C4
02
02
82
44
38
00
00
00
ENDCHAR
STARTCHAR U+0036
ENCODING 54
SWIDTH 600 0
DWIDTH 8 0
BBX 8 16 0 -2
BITMAP
00
00
38
44
82
80
B8
C4
82
82
82
44
38
00
00
00
ENDCHAR
STARTCHAR U+0037
ENCODING 55
SWIDTH 600 0
DWIDTH 8 0
BBX 8 16 0 -2
BITMAP
00
00
FE
82
84
08
08
10
10
10
10
10
10
00
00
00
ENDCHAR
STARTCHAR U+0038
ENCODING 56
SWIDTH 600 0
DWIDTH 8 0
BBX 8 16 0 -2
BITMAP
00
00
38
44
82
82
44
38
44
82
82
44
38
00
00
00
ENDCHAR
STARTCHAR U+0039
ENCODING 57
SWIDTH 600 0
DWIDTH 8 0
BBX 8 16 0 -2
BITMAP
00
00
38
44
82
82
82
46
3A
02
82
44
38
00
00
00
ENDCHAR
STARTCHAR U+0041
ENCODING 65
SWIDTH 600 0
DWIDTH 8 0
BBX 8 16 0 -2
BITMAP
00
00
10
28
28
44
44
44
82
FE
82
82
82
00
00
00
ENDCHAR
STARTCHAR U+0042
ENCODING 66
SWIDTH 600 0
DWIDTH 8 0
BBX 8 16 0 -2
BITMAP
00
00
F8
44
42
42
44
78
44
42
42
44
F8
00
00
00
ENDCHAR
STARTCHAR U+0043
ENCODING 67
SWIDTH 600 0
DWIDTH 8 0
BBX 8 16 0 -2
BITMAP
00
00
3C
42
82
80
80
80
80
80
82
42
3C
00
00
00
ENDCHAR
STARTCHAR U+0044
ENCODING 68
SWIDTH 600 0
DWIDTH 8 0
BBX 8 16 0 -2
BITMAP
00
00
FC
42
42
42
42
42
42
42
42
42
FC
00
00
00
ENDCHAR
STARTCHAR U+0045
ENCODING 69
SWIDTH 600 0
DWIDTH 8 0
BBX 8 16 0 -2
BITMAP
00
00
FE
42
40
40
44
7C
44
40
40
42
FE
00
00
00
ENDCHAR
STARTCHAR U+0046
ENCODING 70
SWIDTH 600 0
DWIDTH 8 0
BBX 8 16 0 -2
BITMAP
00
00
FE
42
40
40
44
7C
44
40
40
40
C0
00
00
00
ENDCHAR
STARTCHAR U+0047
ENCODING 71
SWIDTH 600 0
DWIDTH 8 0
BBX 8 16 0 -2
BITMAP
00
00
38
44
82
82
80
80
9E
82
82
46
3A
00
00
00
ENDCHAR
STARTCHAR U+0048
ENCODING 72
SWIDTH 600 0
DWIDTH 8 0
BBX 8 16 0 -2
BITMAP
00
00
EE
44
44
44
44
44
7C
44
44
44
EE
00
00
00
ENDCHAR
STARTCHAR U+0049
ENCODING 73
SWIDTH 600 0
DWIDTH 8 0
BBX 8 16 0 -2
BITMAP
00
00
FE
92
10
10
10
10
10
10
10
92
FE
00
00
00
ENDCHAR
STARTCHAR U+004A
ENCODING 74
SWIDTH 600 0
DWIDTH 8 0
BBX 8 16 0 -2
BITMAP
00
00
FE
08
08
08
08
08
08
08
08
88
70
00
00
00
ENDCHAR
STARTCHAR U+004B
ENCODING 75
SWIDTH 600 0
DWIDTH 8 0
BBX 8 16 0 -2
BITMAP
00
00
EE
44
48
50
60
40
60
50
48
44
EE
00
00
00
ENDCHAR
STARTCHAR U+004C
ENCODING 76
SWIDTH 600 0
DWIDTH 8 0
BBX 8 16 0 -2
BITMAP
00
00
E0
40
40
40
40
40
40
40
40
42
FE
00
00
00
ENDCHAR
STARTCHAR U+004D
ENCODING 77
SWIDTH 600 0
DWIDTH 8 0
BBX 8 16 0 -2
BITMAP
00
00
82
C6
AA
92
82
82
82
82
82
82
82
00
00
00
ENDCHAR
STARTCHAR U+004E
ENCODING 78
SWIDTH 600 0
DWIDTH 8 0
BBX 8 16 0 -2
BITMAP
00
00
82
C2
C2
A2
A2
92
8A
8A
86
86
82
00
00
00
ENDCHAR
STARTCHAR U+004F
ENCODING 79
SWIDTH 600 0
DWIDTH 8 0
BBX 8 16 0 -2
BITMAP
00
00
38
44
82
82
82
82
82
82
82
44
38
00
00
00
ENDCHAR
STARTCHAR U+0050
ENCODING 80
SWIDTH 600 0
DWIDTH 8 0
BBX 8 16 0 -2
BITMAP
00
00
FC
42
42
42
42
7C
40
40
40
40
E0
00
00
00
ENDCHAR
STARTCHAR U+0051
ENCODING 81
SWIDTH 600 0
DWIDTH 8 0
BBX 8 16 0 -2
BITMAP
00
00
38
44
82
82
82
82
82
82
BA
44
3A
00
00
00
ENDCHAR
STARTCHAR U+0052
ENCODING 82
SWIDTH 600 0
DWIDTH 8 0
BBX 8 16 0 -2
BITMAP
00
00
FC
42
42
42
42
7C
50
48
48
44
E6
00
00
00
ENDCHAR
STARTCHAR U+0053
ENCODING 83
SWIDTH 600 0
DWIDTH 8 0
BBX 8 16 0 -2
BITMAP
00
00
3A
46
82
82
40
38
04
82
82
C4
B8
00
00
00
ENDCHAR
STARTCHAR U+0054
ENCODING 84
SWIDTH 600 0
DWIDTH 8 0
BBX 8 16 0 -2
BITMAP
00
00
FE
92
10
10
10
10
10
10
10
10
38
00
00
00
ENDCHAR
STARTCHAR U+0055
ENCODING 85
SWIDTH 600 0
DWIDTH 8 0
BBX 8 16 0 -2
BITMAP
00
00
EE
44
44
44
44
44
44
44
44
44
38
00
00
00
ENDCHAR
STARTCHAR U+0056
ENCODING 86
SWIDTH 600 0
DWIDTH 8 0
BBX 8 16 0 -2
BITMAP
00
00
EE
44
44
44
44
44
28
28
28
28
10
00
00
00
ENDCHAR
STARTCHAR U+0057
ENCODING 87
SWIDTH 600 0
DWIDTH 8 0
BBX 8 16 0 -2
BITMAP
00
00
82
82
82
82
82
92
92
92
92
AA
44
00
00
00
ENDCHAR
STARTCHAR U+0058
ENCODING 88
SWIDTH 600 0
DWIDTH 8 0
BBX 8 16 0 -2
BITMAP
00
00
EE
44
44
2C
28
10
28
28
44
44
EE
00
00
00
ENDCHAR
STARTCHAR U+0059
ENCODING 89
SWIDTH 600 0
DWIDTH 8 0
BBX 8 16 0 -2
BITMAP
00
00
EE
44
44
44
28
10
10
10
10
10
38
00
00
00
ENDCHAR
STARTCHAR U+005A
ENCODING 90
SWIDTH 600 0
DWIDTH 8 0
BBX 8 16 0 -2
BITMAP
00
00
FE
82
02
04
08
10
20
40
80
82
FE
00
00
00
ENDCHAR
STARTCHAR U+0061
ENCODING 97
SWIDTH 600 0
DWIDTH 8 0
BBX 8 16 0 -2
BITMAP
00
00
00
00
00
7C
82
02
7E
82
82
86
7A
00
00
00
ENDCHAR
STARTCHAR U+0062
ENCODING 98
SWIDTH 600 0
DWIDTH 8 0
BBX 8 16 0 -2
BITMAP
00
00
80
80
80
B8
C4
82
82
82
82
C4
B8
00
00
00
ENDCHAR
STARTCHAR U+0063
ENCODING 99
SWIDTH 600 0
DWIDTH 8 0
BBX 8 16 0 -2
BITMAP
00
00
00
00
00
3C
42
80
80
80
80
42
3C
00
00
00
ENDCHAR
STARTCHAR U+0064
ENCODING 100
SWIDTH 600 0
DWIDTH 8 0
BBX 8 16 0 -2
BITMAP
00
00
06
02
02
3A
46
82
82
82
82
46
3A
00
00
00
ENDCHAR
STARTCHAR U+0065
ENCODING 101
SWIDTH 600 0
DWIDTH 8 0
BBX 8 16 0 -2
BITMAP
00
00
00
00
00
38
44
82
FE
80
82
44
38
00
00
00
ENDCHAR
STARTCHAR U+0066
ENCODING 102
SWIDTH 600 0
DWIDTH 8 0
BBX 8 16 0 -2
BITMAP
00
00
1C
22
20
FC
20
20
20
20
20
20
70
00
00
00
ENDCHAR
STARTCHAR U+0067
ENCODING 103
SWIDTH 600 0
DWIDTH 8 0
BBX 8 16 0 -2
BITMAP
00
00
00
00
00
3A
46
82
82
82
46
3A
82
44
38
00
ENDCHAR
STARTCHAR U+0068
ENCODING 104
SWIDTH 600 0
DWIDTH 8 0
BBX 8 16 0 -2
BITMAP
00
00
80
80
80
B8
C4
82
82
82
82
82
82
00
00
00
ENDCHAR
STARTCHAR U+0069
ENCODING 105
SWIDTH 600 0
DWIDTH 8 0
BBX 8 16 0 -2
BITMAP
00
00
10
10
00
30
10
10
10
10
10
10
38
00
00
00
ENDCHAR
STARTCHAR U+006A
ENCODING 106
SWIDTH 600 0
DWIDTH 8 0
BBX 8 16 0 -2
BITMAP
00
00
00
08
00
18
08
08
08
08
08
08
08
48
30
00
ENDCHAR
STARTCHAR U+006B
ENCODING 107
SWIDTH 600 0
DWIDTH 8 0
BBX 8 16 0 -2
BITMAP
00
00
C0
40
40
4E
44
48
70
50
48
44
EE
00
00
00
ENDCHAR
STARTCHAR U+006C
ENCODING 108
SWIDTH 600 0
DWIDTH 8 0
BBX 8 16 0 -2
BITMAP
00
00
30
10
10
10
10
10
10
10
10
10
38
00
00
00
ENDCHAR
STARTCHAR U+006D
ENCODING 109
SWIDTH 600 0
DWIDTH 8 0
BBX 8 16 0 -2
BITMAP
00
00
00
00
00
EC
92
92
92
92
92
92
82
00
00
00
ENDCHAR
STARTCHAR U+006E
ENCODING 110
SWIDTH 600 0
DWIDTH 8 0
BBX 8 16 0 -2
BITMAP
00
00
00
00
00
DC
62
42
42
42
42
42
E2
00
00
00
ENDCHAR
STARTCHAR U+006F
ENCODING 111
SWIDTH 600 0
DWIDTH 8 0
BBX 8 16 0 -2
BITMAP
00
00
00
00
00
38
44
82
82
82
82
44
38
00
00
00
ENDCHAR
STARTCHAR U+0070
ENCODING 112
SWIDTH 600 0
DWIDTH 8 0
BBX 8 16 0 -2
BITMAP
00
00
00
00
00
B8
C4
82
82
82
82
C4
B8
80
80
00
ENDCHAR
STARTCHAR U+0071
ENCODING 113
SWIDTH 600 0
DWIDTH 8 0
BBX 8 16 0 -2
BITMAP
00
00
00
00
00
3A
46
82
82
82
82
C6
3A
02
02
00
ENDCHAR
STARTCHAR U+0072
ENCODING 114
SWIDTH 600 0
DWIDTH 8 0
BBX 8 16 0 -2
BITMAP
00
00
00
00
00
DC
62
40
40
40
40
40
E0
00
00
00
ENDCHAR
STARTCHAR U+0073
ENCODING 115
SWIDTH 600 0
DWIDTH 8 0
BBX 8 16 0 -2
BITMAP
00
00
00
00
00
7A
86
82
40
3C
82
C2
BC
00
00
00
ENDCHAR
STARTCHAR U+0074
ENCODING 116
SWIDTH 600 0
DWIDTH 8 0
BBX 8 16 0 -2
BITMAP
00
00
10
10
10
7C
10
10
10
10
10
12
0C
00
00
00
ENDCHAR
STARTCHAR U+0075
ENCODING 117
SWIDTH 600 0
DWIDTH 8 0
BBX 8 16 0 -2
BITMAP
00
00
00
00
00
82
82
82
82
82
82
46
3A
00
00
00
ENDCHAR
STARTCHAR U+0076
ENCODING 118
SWIDTH 600 0
DWIDTH 8 0
BBX 8 16 0 -2
BITMAP
00
00
00
00
00
82
82
44
44
28
28
10
10
00
00
00
ENDCHAR
STARTCHAR U+0077
ENCODING 119
SWIDTH 600 0
DWIDTH 8 0
BBX 8 16 0 -2
BITMAP
00
00
00
00
00
82
82
82
92
92
AA
44
44
00
00
00
ENDCHAR
STARTCHAR U+0078
ENCODING 120
SWIDTH 600 0
DWIDTH 8 0
BBX 8 16 0 -2
BITMAP
00
00
00
00
00
EE
44
28
10
28
44
44
EE
00
00
00
ENDCHAR
STARTCHAR U+0079
ENCODING 121
SWIDTH 600 0
DWIDTH 8 0
BBX 8 16 0 -2
BITMAP
00
00
00
00
00
CE
84
44
48
28
28
10
10
10
20
00
ENDCHAR
STARTCHAR U+007A
ENCODING 122
SWIDTH 600 0
DWIDTH 8 0
BBX 8 16 0 -2
BITMAP
00
00
00
00
00
FC
84
08
10
20
40
84
FC
00
00
00
ENDCHAR
ENDFONT
